<svg width="1440" height="1024" viewBox="0 0 1440 1024" fill="none" xmlns="http://www.w3.org/2000/svg">
<path d="M1270.5 500C923.379 403.844 907.045 631.057 1192.62 346.279C1478.19 61.5 494.711 346.279 494.711 346.279L544 500C544 500 1358.59 1019.37 1246.55 832.283C1134.5 645.194 1617.62 596.156 1270.5 500Z" fill="#FFB3C6"/>
<path d="M736.457 448C378.891 272.773 380.857 202.007 659.144 29.8084C937.431 -142.39 -38 -6.73561 -38 -6.73561V878.92C-38 878.92 851.871 1219.86 736.457 878.92C621.044 537.983 1094.02 623.227 736.457 448Z" fill="#FFB3C6"/>
<path d="M1302.66 907.641C1033.88 1001.64 1071.05 1046.87 1235.64 1123.62H1478.19C1608.97 1167.04 1671.62 1180.05 1478.19 878.92C1413.79 731.424 1376.02 712.423 1302.66 907.641Z" fill="#FB6F92"/>
<path d="M1224.58 105.376C1353.95 391.844 1442.42 305.237 1478.19 105.376L1434.07 -168.569C1459.69 -199.324 1513.57 280.263 1224.58 -124.06C1110.03 -24.492 1044.11 58.024 1224.58 105.376Z" fill="#FB6F92"/>
</svg>

